<svg width="80" height="80" viewBox="0 0 80 80" fill="none" xmlns="http://www.w3.org/2000/svg">
<path d="M80 40C80 62.0914 62.0914 80 40 80C17.9086 80 0 62.0914 0 40C0 17.9086 17.9086 0 40 0C62.0914 0 80 17.9086 80 40Z" fill="#AA0000"/>
<circle cx="55.5" cy="49.5" r="1.5" fill="#410000"/>
<circle cx="52.5" cy="52.5" r="1.5" fill="#410000"/>
<circle cx="58.5" cy="52.5" r="1.5" fill="#410000"/>
<circle cx="55.5" cy="55.5" r="1.5" fill="#410000"/>
<path d="M52.059 41.4427C54.7051 41.4374 57.2548 42.2453 59.1925 43.703C61.1301 45.1606 62.311 47.1592 62.4962 49.2944L63.9835 66.1797C64.0445 66.817 63.936 67.4575 63.6654 68.0581C63.3947 68.6586 62.9681 69.2053 62.4143 69.6613C61.8604 70.1173 61.1923 70.472 60.4548 70.7015C59.7172 70.9311 58.9275 71.0301 58.1387 70.9921C56.8702 70.8991 55.6739 70.4736 54.7319 69.7802C53.7899 69.0868 53.1537 68.1634 52.9201 67.1506L50.937 59.9955C50.8097 59.5154 50.4795 59.0863 50.0033 58.782C49.527 58.4776 48.9345 58.3171 48.3277 58.328C48.3277 58.328 43.5 60 40.4998 59.9955C37.4997 59.9909 32.5154 58.328 32.5154 58.328C31.9086 58.3171 31.3161 58.4776 30.8399 58.782C30.3636 59.0863 30.0334 59.5154 29.9061 59.9955L28.0013 67.1506C27.7677 68.1634 27.1315 69.0868 26.1895 69.7802C25.2475 70.4736 24.0512 70.8991 22.7827 70.9921C22.0003 71.0208 21.2192 70.9148 20.4912 70.6811C19.7632 70.4474 19.1048 70.0913 18.5597 69.6364C18.0146 69.1814 17.5951 68.638 17.329 68.0421C17.0629 67.4463 16.9563 66.8114 17.0162 66.1797L18.5035 49.2944C18.6887 47.1592 19.8696 45.1606 21.8072 43.703C23.7449 42.2453 26.2946 41.4374 28.9407 41.4427H52.059ZM40.4998 30V41.4427V30ZM48.3277 41.4427H32.672C32.672 41.4427 32.9532 44.828 33.9766 45.664C35 46.5 46 46.5 47.0231 45.664C48.0462 44.828 48.3277 41.4427 48.3277 41.4427Z" fill="#410000" fill-opacity="0.2"/>
<path d="M40.4998 30V41.4427M52.059 41.4427C54.7051 41.4374 57.2548 42.2453 59.1925 43.703C61.1301 45.1606 62.311 47.1592 62.4962 49.2944L63.9835 66.1797C64.0445 66.817 63.936 67.4575 63.6654 68.0581C63.3947 68.6586 62.9681 69.2053 62.4143 69.6613C61.8604 70.1173 61.1923 70.472 60.4548 70.7015C59.7172 70.9311 58.9275 71.0301 58.1387 70.9921C56.8702 70.8991 55.6739 70.4736 54.7319 69.7802C53.7899 69.0868 53.1537 68.1634 52.9201 67.1506L50.937 59.9955C50.8097 59.5154 50.4795 59.0863 50.0033 58.782C49.527 58.4776 48.9345 58.3171 48.3277 58.328C48.3277 58.328 43.5 60 40.4998 59.9955C37.4997 59.9909 32.5154 58.328 32.5154 58.328C31.9086 58.3171 31.3161 58.4776 30.8399 58.782C30.3636 59.0863 30.0334 59.5154 29.9061 59.9955L28.0013 67.1506C27.7677 68.1634 27.1315 69.0868 26.1895 69.7802C25.2475 70.4736 24.0512 70.8991 22.7827 70.9921C22.0003 71.0208 21.2192 70.9148 20.4912 70.6811C19.7632 70.4474 19.1048 70.0913 18.5597 69.6364C18.0146 69.1814 17.5951 68.638 17.329 68.0421C17.0629 67.4463 16.9563 66.8114 17.0162 66.1797L18.5035 49.2944C18.6887 47.1592 19.8696 45.1606 21.8072 43.703C23.7449 42.2453 26.2946 41.4374 28.9407 41.4427H52.059ZM48.3277 41.4427H32.672C32.672 41.4427 32.9532 44.828 33.9766 45.664C35 46.5 46 46.5 47.0231 45.664C48.0462 44.828 48.3277 41.4427 48.3277 41.4427Z" stroke="#410000" stroke-linecap="round" stroke-linejoin="round"/>
<path d="M52.9432 39.0927C52.63 39.0927 52.3509 39.0384 52.1058 38.9297C51.8608 38.8189 51.6669 38.6559 51.5241 38.4407C51.3835 38.2234 51.3132 37.9528 51.3132 37.6289C51.3132 37.3562 51.3633 37.1271 51.4634 36.9418C51.5636 36.7564 51.6999 36.6072 51.8725 36.4943C52.0451 36.3814 52.2411 36.2962 52.4606 36.2386C52.6822 36.1811 52.9144 36.1406 53.1573 36.1172C53.4428 36.0874 53.6729 36.0597 53.8477 36.0341C54.0224 36.0064 54.1491 35.9659 54.228 35.9126C54.3068 35.8594 54.3462 35.7805 54.3462 35.6761V35.657C54.3462 35.4545 54.2823 35.2979 54.1545 35.1871C54.0288 35.0763 53.8498 35.021 53.6175 35.021C53.3725 35.021 53.1776 35.0753 53.0327 35.1839C52.8878 35.2905 52.7919 35.4247 52.745 35.5866L51.4858 35.4844C51.5497 35.1861 51.6754 34.9283 51.8629 34.7109C52.0504 34.4915 52.2923 34.3232 52.5884 34.206C52.8867 34.0866 53.2319 34.027 53.6239 34.027C53.8967 34.027 54.1577 34.0589 54.407 34.1229C54.6584 34.1868 54.881 34.2859 55.0749 34.4201C55.271 34.5543 55.4254 34.7269 55.5384 34.9379C55.6513 35.1467 55.7077 35.397 55.7077 35.6889V39H54.4165V38.3192H54.3782C54.2994 38.4727 54.1939 38.608 54.0618 38.7251C53.9297 38.8402 53.771 38.9308 53.5856 38.9968C53.4002 39.0607 53.1861 39.0927 52.9432 39.0927ZM53.3331 38.1531C53.5334 38.1531 53.7102 38.1136 53.8636 38.0348C54.017 37.9538 54.1374 37.8452 54.2248 37.7088C54.3121 37.5724 54.3558 37.418 54.3558 37.2454V36.7244C54.3132 36.7521 54.2546 36.7777 54.18 36.8011C54.1076 36.8224 54.0256 36.8427 53.9339 36.8619C53.8423 36.8789 53.7507 36.8949 53.6591 36.9098C53.5675 36.9226 53.4844 36.9343 53.4098 36.945C53.25 36.9684 53.1104 37.0057 52.9911 37.0568C52.8718 37.108 52.7791 37.1772 52.7131 37.2646C52.647 37.3498 52.614 37.4563 52.614 37.5842C52.614 37.7695 52.6811 37.9112 52.8153 38.0092C52.9517 38.1051 53.1243 38.1531 53.3331 38.1531ZM58.9757 40.9432C58.5346 40.9432 58.1564 40.8825 57.8411 40.761C57.5279 40.6417 57.2786 40.4787 57.0932 40.272C56.9078 40.0653 56.7875 39.8331 56.7321 39.5753L57.9913 39.4059C58.0297 39.5039 58.0904 39.5955 58.1735 39.6808C58.2566 39.766 58.3663 39.8342 58.5027 39.8853C58.6412 39.9386 58.8095 39.9652 59.0076 39.9652C59.3038 39.9652 59.5478 39.8928 59.7395 39.7479C59.9334 39.6051 60.0304 39.3654 60.0304 39.0288V38.1307H59.9728C59.9132 38.267 59.8237 38.396 59.7044 38.5174C59.585 38.6388 59.4316 38.7379 59.2441 38.8146C59.0566 38.8913 58.8329 38.9297 58.573 38.9297C58.2044 38.9297 57.8688 38.8445 57.5662 38.674C57.2658 38.5014 57.0261 38.2383 56.8471 37.8846C56.6703 37.5288 56.5819 37.0792 56.5819 36.5359C56.5819 35.9798 56.6724 35.5153 56.8535 35.1424C57.0346 34.7695 57.2754 34.4904 57.5758 34.305C57.8784 34.1197 58.2097 34.027 58.5698 34.027C58.8446 34.027 59.0748 34.0739 59.2601 34.1676C59.4455 34.2592 59.5946 34.3743 59.7076 34.5128C59.8226 34.6491 59.911 34.7834 59.9728 34.9155H60.024V34.0909H61.3759V39.0479C61.3759 39.4656 61.2736 39.815 61.0691 40.0962C60.8645 40.3775 60.5811 40.5884 60.2189 40.729C59.8588 40.8718 59.4444 40.9432 58.9757 40.9432ZM59.0044 37.907C59.2239 37.907 59.4093 37.8526 59.5605 37.744C59.714 37.6332 59.8311 37.4755 59.9121 37.271C59.9952 37.0643 60.0368 36.8171 60.0368 36.5295C60.0368 36.2418 59.9963 35.9925 59.9153 35.7816C59.8343 35.5685 59.7172 35.4034 59.5637 35.2862C59.4103 35.169 59.2239 35.1104 59.0044 35.1104C58.7807 35.1104 58.5922 35.1712 58.4387 35.2926C58.2853 35.4119 58.1692 35.5781 58.0904 35.7912C58.0115 36.0043 57.9721 36.2504 57.9721 36.5295C57.9721 36.8129 58.0115 37.0579 58.0904 37.2646C58.1713 37.4691 58.2875 37.6278 58.4387 37.7408C58.5922 37.8516 58.7807 37.907 59.0044 37.907ZM64.6966 39.0959C64.1916 39.0959 63.7569 38.9936 63.3926 38.7891C63.0304 38.5824 62.7512 38.2905 62.5552 37.9134C62.3592 37.5341 62.2612 37.0856 62.2612 36.5678C62.2612 36.0629 62.3592 35.6197 62.5552 35.2383C62.7512 34.8569 63.0272 34.5597 63.383 34.3466C63.7409 34.1335 64.1607 34.027 64.6422 34.027C64.9661 34.027 65.2676 34.0792 65.5467 34.1836C65.8279 34.2859 66.073 34.4403 66.2818 34.647C66.4927 34.8537 66.6568 35.1136 66.774 35.4268C66.8912 35.7379 66.9498 36.1023 66.9498 36.5199V36.8938H62.8045V36.0501H65.6681C65.6681 35.854 65.6255 35.6804 65.5403 35.5291C65.4551 35.3778 65.3368 35.2596 65.1855 35.1744C65.0364 35.087 64.8627 35.0433 64.6646 35.0433C64.4579 35.0433 64.2747 35.0913 64.1149 35.1871C63.9572 35.2809 63.8336 35.4077 63.7441 35.5675C63.6547 35.7251 63.6088 35.9009 63.6067 36.0948V36.897C63.6067 37.1399 63.6515 37.3498 63.7409 37.5266C63.8326 37.7035 63.9615 37.8398 64.1277 37.9357C64.2939 38.0316 64.4909 38.0795 64.7189 38.0795C64.8702 38.0795 65.0087 38.0582 65.1344 38.0156C65.2601 37.973 65.3677 37.9091 65.4572 37.8239C65.5467 37.7386 65.6149 37.6342 65.6618 37.5107L66.921 37.5938C66.8571 37.8963 66.726 38.1605 66.5279 38.3864C66.3319 38.6101 66.0783 38.7848 65.7672 38.9105C65.4583 39.0341 65.1014 39.0959 64.6966 39.0959Z" fill="#410000"/>
<path d="M20.3636 23C20.2386 22.6174 20.0739 22.2746 19.8693 21.9716C19.6686 21.6648 19.428 21.4034 19.1477 21.1875C18.8712 20.9716 18.5568 20.8068 18.2045 20.6932C17.8523 20.5795 17.4659 20.5227 17.0455 20.5227C16.3561 20.5227 15.7292 20.7008 15.1648 21.0568C14.6004 21.4129 14.1515 21.9375 13.8182 22.6307C13.4848 23.3239 13.3182 24.1742 13.3182 25.1818C13.3182 26.1894 13.4867 27.0398 13.8239 27.733C14.161 28.4261 14.6174 28.9508 15.1932 29.3068C15.7689 29.6629 16.4167 29.8409 17.1364 29.8409C17.803 29.8409 18.3902 29.6989 18.8977 29.4148C19.4091 29.1269 19.8068 28.7216 20.0909 28.1989C20.3788 27.6723 20.5227 27.053 20.5227 26.3409L20.9545 26.4318H17.4545V25.1818H21.8864V26.4318C21.8864 27.3902 21.6818 28.2235 21.2727 28.9318C20.8674 29.6402 20.3068 30.1894 19.5909 30.5795C18.8788 30.9659 18.0606 31.1591 17.1364 31.1591C16.1061 31.1591 15.2008 30.9167 14.4205 30.4318C13.6439 29.947 13.0379 29.2576 12.6023 28.3636C12.1705 27.4697 11.9545 26.4091 11.9545 25.1818C11.9545 24.2614 12.0777 23.4337 12.3239 22.6989C12.5739 21.9602 12.9261 21.3314 13.3807 20.8125C13.8352 20.2936 14.3731 19.8958 14.9943 19.6193C15.6155 19.3428 16.2992 19.2045 17.0455 19.2045C17.6591 19.2045 18.2311 19.2973 18.7614 19.483C19.2955 19.6648 19.7708 19.9242 20.1875 20.2614C20.608 20.5947 20.9583 20.9943 21.2386 21.4602C21.5189 21.9223 21.7121 22.4356 21.8182 23H20.3636ZM24.4176 31H22.9403L27.2131 19.3636H28.6676L32.9403 31H31.4631L27.9858 21.2045H27.8949L24.4176 31ZM24.9631 26.4545H30.9176V27.7045H24.9631V26.4545ZM34.7528 19.3636H36.4347L40.3892 29.0227H40.5256L44.4801 19.3636H46.1619V31H44.8438V22.1591H44.7301L41.0938 31H39.821L36.1847 22.1591H36.071V31H34.7528V19.3636ZM48.9872 31V19.3636H56.0099V20.6136H50.3963V24.5455H55.6463V25.7955H50.3963V29.75H56.1009V31H48.9872ZM64.9134 22.2727C64.8452 21.697 64.5687 21.25 64.0838 20.9318C63.599 20.6136 63.0043 20.4545 62.2997 20.4545C61.7846 20.4545 61.3338 20.5379 60.9474 20.7045C60.5649 20.8712 60.2656 21.1004 60.0497 21.392C59.8376 21.6837 59.7315 22.0152 59.7315 22.3864C59.7315 22.697 59.8054 22.964 59.9531 23.1875C60.1046 23.4072 60.2978 23.5909 60.5327 23.7386C60.7675 23.8826 61.0137 24.0019 61.2713 24.0966C61.5289 24.1875 61.7656 24.2614 61.9815 24.3182L63.1634 24.6364C63.4664 24.7159 63.8035 24.8258 64.1747 24.9659C64.5497 25.1061 64.9077 25.2973 65.2486 25.5398C65.5933 25.7784 65.8774 26.0852 66.1009 26.4602C66.3243 26.8352 66.4361 27.2955 66.4361 27.8409C66.4361 28.4697 66.2713 29.0379 65.9418 29.5455C65.616 30.053 65.1387 30.4564 64.5099 30.7557C63.8849 31.0549 63.1255 31.2045 62.2315 31.2045C61.3982 31.2045 60.6766 31.0701 60.0668 30.8011C59.4607 30.5322 58.9834 30.1572 58.6349 29.6761C58.2902 29.1951 58.0952 28.6364 58.0497 28H59.5043C59.5421 28.4394 59.6899 28.803 59.9474 29.0909C60.2088 29.375 60.5384 29.5871 60.9361 29.7273C61.3376 29.8636 61.7694 29.9318 62.2315 29.9318C62.7694 29.9318 63.2524 29.8447 63.6804 29.6705C64.1084 29.4924 64.4474 29.2462 64.6974 28.9318C64.9474 28.6136 65.0724 28.2424 65.0724 27.8182C65.0724 27.4318 64.9645 27.1174 64.7486 26.875C64.5327 26.6326 64.2486 26.4356 63.8963 26.2841C63.544 26.1326 63.1634 26 62.7543 25.8864L61.3224 25.4773C60.4134 25.2159 59.6937 24.8428 59.1634 24.358C58.633 23.8731 58.3679 23.2386 58.3679 22.4545C58.3679 21.803 58.544 21.2348 58.8963 20.75C59.2524 20.2614 59.7296 19.8826 60.3281 19.6136C60.9304 19.3409 61.6027 19.2045 62.3452 19.2045C63.0952 19.2045 63.7618 19.339 64.3452 19.608C64.9285 19.8731 65.3906 20.2367 65.7315 20.6989C66.0762 21.161 66.258 21.6856 66.277 22.2727H64.9134Z" fill="#410000"/>
</svg>
